<svg width="67" height="66" viewBox="0 0 67 66" fill="none" xmlns="http://www.w3.org/2000/svg">
<g opacity="0.4">
<path fill-rule="evenodd" clip-rule="evenodd" d="M33.5002 57.75C47.3761 57.75 58.6252 46.6689 58.6252 33C58.6252 19.3311 47.3761 8.25 33.5002 8.25C19.6242 8.25 8.37516 19.3311 8.37516 33C8.37516 46.6689 19.6242 57.75 33.5002 57.75ZM33.5002 60.5C48.9185 60.5 61.4168 48.1882 61.4168 33C61.4168 17.8118 48.9185 5.5 33.5002 5.5C18.0818 5.5 5.5835 17.8118 5.5835 33C5.5835 48.1882 18.0818 60.5 33.5002 60.5Z" fill="white"/>
<path d="M16.75 48.9912C16.75 47.5709 17.8276 46.3705 19.2625 46.2137C30.0314 45.0395 37.0175 45.1454 47.7626 46.2399C48.2992 46.2954 48.8077 46.5036 49.2262 46.8391C49.6446 47.1747 49.9547 47.623 50.1188 48.1293C50.2828 48.6356 50.2936 49.178 50.1498 49.6903C50.0061 50.2025 49.714 50.6624 49.3092 51.0139C36.6281 61.9025 29.3809 61.7526 17.6433 51.0249C17.071 50.5024 16.75 49.7585 16.75 48.9912Z" fill="white"/>
<path fill-rule="evenodd" clip-rule="evenodd" d="M47.6192 47.6066C36.9592 46.5204 30.0736 46.4186 19.415 47.5805C19.0641 47.6208 18.7407 47.7871 18.5066 48.0477C18.2725 48.3082 18.1441 48.6447 18.1462 48.9926C18.1462 49.3859 18.3123 49.7585 18.5928 50.017C24.4107 55.3328 28.8187 57.7349 33.1276 57.75C37.4519 57.7651 42.0973 55.3823 48.3925 49.9785C48.5925 49.8032 48.7364 49.5743 48.8069 49.3199C48.8774 49.0655 48.8713 48.7963 48.7893 48.5452C48.7074 48.2941 48.5532 48.0719 48.3455 47.9055C48.1378 47.7391 47.8854 47.6344 47.6192 47.6066ZM19.1093 44.847C29.9912 43.6604 37.0792 43.7676 47.9081 44.8718C48.7153 44.9547 49.4805 45.2678 50.1099 45.7726C50.7392 46.2773 51.2056 46.9519 51.4518 47.7137C51.6979 48.4755 51.7133 49.2915 51.4959 50.0618C51.2786 50.8321 50.838 51.5232 50.228 52.0506C43.8421 57.5341 38.5239 60.5206 33.1193 60.5C27.6992 60.4808 22.6156 57.4434 16.6959 52.0328C16.2721 51.6439 15.9342 51.1731 15.7034 50.6497C15.4726 50.1264 15.3538 49.5618 15.3545 48.9913C15.3525 47.9661 15.7345 46.9762 16.4273 46.2113C17.1201 45.4463 18.0751 44.9614 19.1093 44.847Z" fill="white"/>
<path d="M44.6668 27.5C44.6668 30.4174 43.4903 33.2153 41.3962 35.2782C39.302 37.3411 36.4617 38.5 33.5002 38.5C30.5386 38.5 27.6983 37.3411 25.6041 35.2782C23.51 33.2153 22.3335 30.4174 22.3335 27.5C22.3335 24.5826 23.51 21.7847 25.6041 19.7218C27.6983 17.6589 30.5386 16.5 33.5002 16.5C36.4617 16.5 39.302 17.6589 41.3962 19.7218C43.4903 21.7847 44.6668 24.5826 44.6668 27.5Z" fill="white"/>
<path fill-rule="evenodd" clip-rule="evenodd" d="M33.5002 35.75C35.7214 35.75 37.8516 34.8808 39.4222 33.3336C40.9928 31.7865 41.8752 29.688 41.8752 27.5C41.8752 25.312 40.9928 23.2135 39.4222 21.6664C37.8516 20.1192 35.7214 19.25 33.5002 19.25C31.279 19.25 29.1488 20.1192 27.5781 21.6664C26.0075 23.2135 25.1252 25.312 25.1252 27.5C25.1252 29.688 26.0075 31.7865 27.5781 33.3336C29.1488 34.8808 31.279 35.75 33.5002 35.75ZM33.5002 38.5C36.4617 38.5 39.302 37.3411 41.3962 35.2782C43.4903 33.2153 44.6668 30.4174 44.6668 27.5C44.6668 24.5826 43.4903 21.7847 41.3962 19.7218C39.302 17.6589 36.4617 16.5 33.5002 16.5C30.5386 16.5 27.6983 17.6589 25.6041 19.7218C23.51 21.7847 22.3335 24.5826 22.3335 27.5C22.3335 30.4174 23.51 33.2153 25.6041 35.2782C27.6983 37.3411 30.5386 38.5 33.5002 38.5Z" fill="white"/>
</g>
</svg>
