<svg width="55" height="50" viewBox="0 0 55 50" fill="none" xmlns="http://www.w3.org/2000/svg">
<path d="M44.9167 43.75L30.4792 30.625C29.3333 31.4583 28.0156 32.1181 26.526 32.6042C25.0365 33.0903 23.4514 33.3333 21.7708 33.3333C17.6076 33.3333 14.0846 32.0229 11.2017 29.4021C8.31722 26.7799 6.875 23.5764 6.875 19.7917C6.875 16.0069 8.31722 12.8035 11.2017 10.1813C14.0846 7.56042 17.6076 6.25 21.7708 6.25C25.934 6.25 29.4578 7.56042 32.3423 10.1813C35.2252 12.8035 36.6667 16.0069 36.6667 19.7917C36.6667 21.3194 36.3993 22.7604 35.8646 24.1146C35.3299 25.4687 34.6042 26.6667 33.6875 27.7083L48.125 40.8333L44.9167 43.75ZM21.7708 29.1667C24.6354 29.1667 27.0707 28.2556 29.0767 26.4333C31.0811 24.6097 32.0833 22.3958 32.0833 19.7917C32.0833 17.1875 31.0811 14.9736 29.0767 13.15C27.0707 11.3278 24.6354 10.4167 21.7708 10.4167C18.9062 10.4167 16.471 11.3278 14.465 13.15C12.4606 14.9736 11.4583 17.1875 11.4583 19.7917C11.4583 22.3958 12.4606 24.6097 14.465 26.4333C16.471 28.2556 18.9062 29.1667 21.7708 29.1667Z" fill="white"/>
</svg>
