<svg width="38" height="38" viewBox="0 0 38 38" fill="none" xmlns="http://www.w3.org/2000/svg">
<path d="M34.5833 37.5L21.4583 24.375C20.4167 25.2083 19.2187 25.8681 17.8646 26.3542C16.5104 26.8403 15.0694 27.0833 13.5417 27.0833C9.75694 27.0833 6.55417 25.7729 3.93333 23.1521C1.31111 20.5299 0 17.3264 0 13.5417C0 9.75694 1.31111 6.55347 3.93333 3.93125C6.55417 1.31042 9.75694 0 13.5417 0C17.3264 0 20.5299 1.31042 23.1521 3.93125C25.7729 6.55347 27.0833 9.75694 27.0833 13.5417C27.0833 15.0694 26.8403 16.5104 26.3542 17.8646C25.8681 19.2187 25.2083 20.4167 24.375 21.4583L37.5 34.5833L34.5833 37.5ZM13.5417 22.9167C16.1458 22.9167 18.3597 22.0056 20.1833 20.1833C22.0056 18.3597 22.9167 16.1458 22.9167 13.5417C22.9167 10.9375 22.0056 8.72361 20.1833 6.9C18.3597 5.07778 16.1458 4.16667 13.5417 4.16667C10.9375 4.16667 8.72361 5.07778 6.9 6.9C5.07778 8.72361 4.16667 10.9375 4.16667 13.5417C4.16667 16.1458 5.07778 18.3597 6.9 20.1833C8.72361 22.0056 10.9375 22.9167 13.5417 22.9167Z" fill="black"/>
</svg>
